<?xml version="1.0" encoding="UTF-8" standalone="no"?>
<!DOCTYPE svg PUBLIC "-//W3C//DTD SVG 1.1//EN" "http://www.w3.org/Graphics/SVG/1.1/DTD/svg11.dtd">
<svg width="100%" height="100%" viewBox="0 0 1080 1080" version="1.1" xmlns="http://www.w3.org/2000/svg" xmlns:xlink="http://www.w3.org/1999/xlink" xml:space="preserve" xmlns:serif="http://www.serif.com/" style="fill-rule:evenodd;clip-rule:evenodd;stroke-linecap:round;stroke-linejoin:round;stroke-miterlimit:1.5;">
    <g transform="matrix(1.26842,0,0,1.26842,-147.851,-84.1081)">
        <g>
            <path d="M853.19,765.665C853.19,748.527 839.277,734.613 822.139,734.613L732.554,734.613L732.554,891.014L853.19,891.014L853.19,765.665Z" style="fill:rgb(176,180,185);"/>
            <path d="M732.554,891.014L732.554,734.613L262.444,734.613C245.306,734.613 231.392,748.527 231.392,765.665L231.392,859.963C231.392,877.101 245.306,891.014 262.444,891.014L732.554,891.014Z" style="fill:rgb(133,137,142);"/>
            <path d="M732.554,734.613L732.554,891.014L732.554,734.613ZM390.448,734.613L262.444,734.613C245.306,734.613 231.392,748.527 231.392,765.665L231.392,891.014L390.448,891.014C373.31,891.014 359.397,891.014 359.397,891.014L359.397,765.665C359.397,748.527 373.31,734.613 390.448,734.613Z" style="fill:rgb(120,125,130);"/>
            <path d="M494.156,93.191C496.841,93.105 499.525,93.061 502.22,93.061C629.345,93.061 732.554,189.912 732.554,309.205L732.554,734.613L810.214,734.613L810.214,309.205C810.214,189.912 707.005,93.061 579.88,93.061L494.309,93.061L494.156,93.191Z" style="fill:rgb(133,137,142);"/>
            <g transform="matrix(1.26123,0,0,1.18353,-130.587,-75.5153)">
                <path d="M684.364,325.062C684.364,224.268 602.531,142.435 501.737,142.435C400.943,142.435 319.111,224.268 319.111,325.062L319.111,684.503L684.364,684.503L684.364,325.062Z" style="fill:rgb(176,180,185);"/>
            </g>
            <path d="M364.861,734.613L364.861,309.205C364.861,209.738 440.52,122.209 539.361,95.862C527.281,94.02 514.869,93.061 502.22,93.061C375.095,93.061 271.886,189.912 271.886,309.205L271.886,734.613L364.861,734.613Z" style="fill:rgb(161,165,168);"/>
            <path d="M684.364,325.062C684.364,224.268 602.531,142.435 501.737,142.435C400.943,142.435 319.111,224.268 319.111,325.062L319.111,684.503L684.364,684.503L684.364,325.062Z" style="fill:rgb(133,137,142);"/>
            <path d="M407.921,168.375C354.735,200.309 319.111,258.558 319.111,325.062L319.111,684.503L684.364,684.503L684.364,643.496C677.503,644.343 670.507,644.779 663.411,644.779L534.712,644.779C440.968,644.779 364.861,568.671 364.861,474.928L364.861,281.349C364.861,237.992 381.141,198.408 407.921,168.375Z" style="fill:rgb(120,125,130);"/>
        </g>
        <g>
            <path d="M853.19,765.665C853.19,748.527 839.277,734.613 822.139,734.613L732.554,734.613L732.554,891.014L853.19,891.014L853.19,765.665Z" style="fill:none;stroke:black;stroke-width:11.04px;"/>
            <path d="M732.554,891.014L732.554,734.613L262.444,734.613C245.306,734.613 231.392,748.527 231.392,765.665L231.392,891.014L732.554,891.014Z" style="fill:none;stroke:black;stroke-width:11.04px;"/>
            <path d="M494.156,93.191C496.841,93.105 499.525,93.061 502.22,93.061C629.345,93.061 732.554,189.912 732.554,309.205L732.554,734.613L810.214,734.613L810.214,309.205C810.214,189.912 707.005,93.061 579.88,93.061L494.309,93.061L494.156,93.191Z" style="fill:none;stroke:black;stroke-width:11.04px;"/>
            <g transform="matrix(1.26123,0,0,1.18353,-130.587,-75.5153)">
                <path d="M684.364,325.062C684.364,224.268 602.531,142.435 501.737,142.435C400.943,142.435 319.111,224.268 319.111,325.062L319.111,684.503L684.364,684.503L684.364,325.062Z" style="fill:none;stroke:black;stroke-width:9.02px;"/>
            </g>
            <path d="M684.364,325.062C684.364,224.268 602.531,142.435 501.737,142.435C400.943,142.435 319.111,224.268 319.111,325.062L319.111,684.503L684.364,684.503L684.364,325.062Z" style="fill:none;stroke:black;stroke-width:11.04px;"/>
        </g>
    </g>
    <g transform="matrix(1.18656,0,0,1.321,-106.55,11.9865)">
        <g transform="matrix(0.355082,0,0,0.355082,358.59,306.203)">
            <path d="M43.9,456.25L43.9,556.25L207.963,556.25L207.963,456.25L43.9,456.25ZM207.963,456.25L207.963,556.25L207.963,456.25Z" style="fill:rgb(226,211,183);fill-rule:nonzero;stroke:black;stroke-width:31.4px;stroke-linecap:butt;stroke-miterlimit:2;"/>
        </g>
        <g transform="matrix(0.399143,0,0,0.355082,349.426,306.203)">
            <rect x="207.963" y="456.25" width="428.125" height="100" style="fill:rgb(242,237,226);fill-rule:nonzero;stroke:black;stroke-width:29.7px;stroke-linecap:butt;stroke-miterlimit:2;"/>
        </g>
        <g transform="matrix(0.334847,0,0,0.355082,372.536,306.203)">
            <rect x="689.212" y="456.25" width="54.688" height="100" style="fill-rule:nonzero;stroke:black;stroke-width:32.21px;stroke-linecap:butt;stroke-miterlimit:2;"/>
        </g>
        <g transform="matrix(0.355082,0,0,0.355082,358.59,293.688)">
            <path d="M738.086,5.661C704.969,98.283 650.477,93.446 593.9,105.479C535.938,117.808 503.986,151.905 503.986,200C503.986,299.593 803.169,294.497 684.814,437.848C792.798,413.18 814.994,269.168 709.638,234.973C667.08,221.161 585.462,188.606 606.974,162.303C637.512,124.965 763.022,147.445 738.086,5.661Z" style="fill:rgb(176,180,185);fill-rule:nonzero;stroke:black;stroke-width:31.4px;stroke-linecap:butt;stroke-miterlimit:2;"/>
        </g>
    </g>
    <g transform="matrix(1.0093,0,0,0.937172,-5.08503,15.8091)">
        <g transform="matrix(0.641059,0,0,0.641059,214.09,84.7685)">
            <path d="M331.507,331.565C343.199,321.626 350.64,306.826 350.64,290.31C350.64,260.452 326.351,236.163 296.493,236.163L255.238,236.163C248.118,236.163 242.346,241.935 242.346,249.055L242.346,400.318C242.346,407.44 248.118,413.212 255.238,413.212C262.358,413.212 268.13,407.44 268.13,400.32L268.13,344.455L296.491,344.455C312.129,344.455 324.852,357.177 324.852,372.816L324.852,400.318C324.852,407.438 330.624,413.21 337.744,413.21C344.865,413.21 350.637,407.438 350.637,400.318L350.637,372.816C350.64,356.307 343.201,341.504 331.507,331.565ZM296.493,318.674L268.132,318.674L268.132,261.951L296.493,261.951C312.13,261.951 324.854,274.672 324.854,290.312C324.855,305.951 312.133,318.674 296.493,318.674Z" style="fill-rule:nonzero;"/>
        </g>
        <g transform="matrix(0.641059,0,0,0.641059,240.234,84.7685)">
            <path d="M520.696,236.165L479.442,236.165C472.32,236.165 466.549,241.936 466.549,249.057L466.549,400.32C466.549,407.441 472.32,413.213 479.442,413.213C486.563,413.213 492.334,407.441 492.334,400.321L492.334,344.457L520.695,344.457C550.55,344.457 574.842,320.168 574.842,290.31C574.842,260.452 550.553,236.165 520.696,236.165ZM520.696,318.674L492.335,318.674L492.335,261.951L520.696,261.951C536.335,261.951 549.057,274.672 549.057,290.312C549.059,305.951 536.335,318.674 520.696,318.674Z" style="fill-rule:nonzero;"/>
        </g>
        <g transform="matrix(0.641059,0,0,0.641059,227.162,84.7685)">
            <path d="M406.898,236.166C399.777,236.166 394.005,241.938 394.005,249.058L394.005,400.321C394.005,407.441 399.776,413.213 406.898,413.213C414.02,413.213 419.79,407.441 419.79,400.321L419.79,249.058C419.79,241.938 414.02,236.166 406.898,236.166Z" style="fill-rule:nonzero;"/>
        </g>
    </g>
</svg>
